<svg version="1.1" id="Layer_1" xmlns="http://www.w3.org/2000/svg" xmlns:xlink="http://www.w3.org/1999/xlink" x="0px" y="0px" width="100%" viewBox="0 0 1460 1258" enable-background="new 0 0 1460 1258" xml:space="preserve">

<path fill="#111224" opacity="1.000000" stroke="none" d="
M600.951782,452.117798 
	C614.032104,453.113770 627.146790,453.784698 640.186646,455.163177 
	C690.634338,460.495911 739.571289,472.311462 787.043823,490.159058 
	C818.910461,502.139496 849.129944,517.492065 878.222107,535.117249 
	C878.624451,535.361023 879.151672,535.398621 880.562378,535.801208 
	C880.014954,533.672668 879.709290,532.026611 879.171509,530.460266 
	C868.600586,499.666534 854.780884,470.340332 839.027893,441.896790 
	C834.757935,434.187134 826.906006,430.672485 819.895081,426.357880 
	C770.071594,395.695526 717.054810,372.540710 659.965393,359.180756 
	C620.856323,350.028534 581.222717,346.042175 541.026855,346.802521 
	C491.947021,347.730988 443.911804,355.097626 396.804138,368.713379 
	C369.448456,376.620148 342.923096,386.729736 316.974274,398.491394 
	C287.003326,412.076172 258.484955,428.218964 231.275497,446.604248 
	C203.395233,465.442871 177.308640,486.582642 152.726837,509.623169 
	C131.556625,529.466064 111.690666,550.493835 92.828186,572.507507 
	C91.319946,574.267700 89.635612,575.876953 87.957420,577.635620 
	C85.712891,572.221130 84.325226,164.154388 86.453232,147.651077 
	C88.157066,147.651077 89.934906,147.651062 91.712746,147.651062 
	C228.040939,147.651062 364.371246,148.094955 500.696381,147.449005 
	C561.638977,147.160248 620.805481,156.173096 678.444580,175.510864 
	C708.016602,185.432190 736.090576,198.790970 763.223694,214.186890 
	C788.430237,228.489594 812.020325,245.112000 834.623718,263.170776 
	C841.369995,268.560608 847.733704,274.429291 854.737793,280.480377 
	C856.247925,278.513519 857.732727,276.823273 858.949829,274.958344 
	C881.723877,240.059982 912.305481,213.788895 948.278076,193.247559 
	C982.215210,173.868515 1018.687317,161.968567 1057.029907,155.566040 
	C1084.057129,151.052979 1111.331299,150.982468 1138.679077,151.703415 
	C1179.816528,152.787918 1219.236816,162.210449 1257.361938,176.628586 
	C1290.865112,189.298782 1321.605347,207.606949 1350.750854,228.440582 
	C1359.484131,234.683273 1367.925293,241.334473 1376.634888,247.900009 
	C1355.941406,281.281525 1335.633545,314.040894 1314.931641,347.436066 
	C1308.460205,342.654510 1301.893677,337.990723 1295.527344,333.068085 
	C1257.640381,303.773071 1215.505493,283.148834 1168.778687,272.729004 
	C1128.599487,263.769226 1088.376465,264.386963 1048.913208,277.149872 
	C1021.826416,285.910034 997.908325,299.925018 979.669922,322.383423 
	C962.708740,343.269165 953.254211,367.268829 951.033081,393.992950 
	C950.727661,397.668304 952.621887,401.769501 954.259644,405.322388 
	C962.543396,423.292786 971.249634,441.069550 979.435791,459.083252 
	C982.381653,465.565582 984.868896,472.378845 986.549377,479.288208 
	C990.081909,493.811859 999.726624,503.506927 1010.715820,512.528992 
	C1033.642334,531.351440 1060.805908,541.851257 1088.108887,551.895081 
	C1125.402100,565.614075 1163.061523,578.340088 1200.320923,592.147461 
	C1228.970093,602.764038 1257.735474,613.180420 1284.741943,627.806885 
	C1314.486816,643.916382 1341.686646,663.351501 1364.693481,688.242676 
	C1396.018677,722.133362 1416.649048,761.609741 1424.889771,807.187012 
	C1434.467896,860.161133 1429.137329,911.711914 1408.157471,961.299805 
	C1389.477539,1005.451843 1360.293091,1041.341919 1321.086914,1069.157715 
	C1278.931274,1099.066040 1231.983887,1117.038330 1181.396484,1125.955688 
	C1131.752197,1134.706787 1081.978027,1134.936646 1032.349854,1125.971313 
	C991.881287,1118.660645 952.740784,1106.977783 915.995178,1088.047363 
	C888.341187,1073.800659 861.429260,1058.367798 836.763672,1039.284912 
	C830.998596,1034.824707 825.387146,1030.165771 819.845337,1025.711060 
	C809.462952,1033.114624 799.696533,1040.642334 789.385925,1047.331055 
	C750.615906,1072.481934 708.748352,1090.896484 664.614563,1104.458374 
	C632.345154,1114.374512 599.362122,1120.391235 565.860291,1123.733887 
	C555.106689,1124.806763 544.250732,1125.243164 533.439087,1125.283203 
	C464.616425,1125.538086 395.793060,1125.685791 326.969879,1125.699219 
	C273.146362,1125.709717 219.322815,1125.419556 165.499191,1125.373901 
	C141.008484,1125.353149 116.517540,1125.601318 92.026703,1125.725342 
	C90.229912,1125.734497 88.433037,1125.726440 86.410751,1125.726440 
	C86.410751,1049.198120 86.410751,973.173340 86.410751,896.196289 
	C89.177391,898.419128 91.490341,899.956482 93.421791,901.877380 
	C122.708969,931.005127 154.272354,957.450073 187.549622,981.877319 
	C192.229889,985.312927 196.962402,988.690247 201.818588,991.868591 
	C204.846008,993.850037 205.793762,996.523132 205.733231,999.910950 
	C205.653259,1004.386230 205.713547,1008.864136 205.713547,1013.764221 
	C242.240204,1013.764221 278.249817,1013.764221 315.562592,1013.764221 
	C307.124817,1009.047119 299.753845,1004.804321 292.272858,1000.765259 
	C259.210236,982.914246 227.917526,962.356750 198.077499,939.544250 
	C172.250381,919.799744 148.458984,897.774414 125.618347,874.717773 
	C92.853065,841.642578 63.600609,805.647888 37.318371,767.226746 
	C32.994259,760.905457 28.628496,754.605774 24.053036,748.466675 
	C22.047173,745.775269 22.172838,743.915161 24.134642,741.105347 
	C50.422554,703.454651 80.900169,669.523987 114.669151,638.485779 
	C150.933228,605.154236 189.908310,575.441650 232.647583,550.860291 
	C280.539581,523.315308 330.237274,499.690674 383.179779,483.424500 
	C424.011902,470.879150 465.550476,461.410431 508.081451,456.917328 
	C526.781067,454.941864 545.584778,453.952332 565.139648,452.363586 
	C577.609253,452.180664 589.280518,452.149231 600.951782,452.117798 
M143.830444,814.943909 
	C163.378906,834.207703 182.139023,854.367371 202.709061,872.470398 
	C221.355713,888.880676 241.727966,903.388306 261.836395,918.053284 
	C270.868988,924.640747 281.112946,929.567261 291.300751,935.691040 
	C301.564941,942.357788 311.293060,950.118896 322.204590,955.464233 
	C345.146484,966.703064 368.408173,977.419434 392.088318,986.990112 
	C427.664001,1001.368469 464.950409,1009.444824 503.221527,1011.624451 
	C561.021729,1014.916260 616.987183,1006.313416 670.520630,983.427246 
	C700.398682,970.654114 728.278992,954.578125 753.803223,934.512329 
	C774.947571,917.889648 794.017700,899.073181 811.313965,878.470154 
	C833.474731,852.072693 851.507812,823.090271 865.456421,791.585571 
	C868.070740,785.680908 870.138733,779.534424 872.458801,773.499512 
	C872.060242,773.299805 871.661682,773.100098 871.263184,772.900391 
	C870.564209,773.714111 869.794922,774.477905 869.176758,775.348877 
	C856.908813,792.632690 843.395142,808.794861 827.259460,822.667236 
	C780.595459,862.785950 727.179443,885.567932 665.092834,887.324585 
	C609.582581,888.895081 558.201721,876.045654 511.591980,845.539490 
	C477.091034,822.958435 449.055603,793.973328 427.498322,758.807068 
	C413.847961,736.539368 403.833893,712.723694 397.457458,687.363159 
	C391.815125,664.922363 390.002899,642.084290 390.110596,618.145874 
	C390.771362,589.519958 394.419830,561.394409 404.936920,533.520569 
	C389.923157,538.806824 375.796783,543.636597 361.773224,548.748474 
	C333.444672,559.074646 305.900696,571.361145 279.864716,586.446899 
	C254.868240,600.930298 230.751862,616.980042 206.681641,632.992249 
	C196.499268,639.765930 187.423996,648.203796 177.228638,656.141907 
	C154.019821,675.708557 132.669205,697.194458 112.167206,719.528870 
	C105.317383,726.990967 99.048813,734.984985 92.454292,742.684265 
	C90.685181,744.749756 90.486755,746.507874 92.119987,748.886902 
	C107.856300,771.809387 124.711578,793.843689 143.830444,814.943909 
M556.277832,542.940735 
	C565.444824,531.288086 574.611816,519.635376 584.359619,507.244446 
	C581.692871,507.115021 579.787231,506.972382 577.879639,506.937408 
	C542.810364,506.294861 508.295044,511.014008 473.913513,517.361816 
	C468.529022,518.355957 465.482605,520.827759 463.143677,525.525696 
	C449.524323,552.881226 442.301880,581.782715 441.321716,613.170349 
	C441.417358,618.822144 441.439117,624.476379 441.621948,630.125366 
	C442.281982,650.513977 444.967743,670.663757 451.612793,689.959412 
	C463.743073,725.182922 483.266266,755.701172 511.047577,780.849670 
	C533.817139,801.461487 559.431763,817.325928 588.602173,826.767944 
	C644.412781,844.832764 698.959412,841.451965 751.325195,814.346069 
	C801.811096,788.213257 835.831421,747.682068 854.768677,693.514587 
	C857.709595,680.247559 861.467712,667.098328 863.400269,653.685974 
	C866.309387,633.495789 865.435303,613.188843 860.926941,593.236938 
	C860.225037,590.130554 857.447083,586.797974 854.699402,584.959656 
	C833.469666,570.755676 810.434265,559.925781 787.110474,549.689514 
	C784.671143,548.618958 782.093140,547.864136 778.342285,546.519165 
	C792.390198,580.602478 795.740479,613.953125 783.664185,648.637817 
	C779.122559,657.882629 775.635681,667.853394 769.858826,676.248169 
	C743.073486,715.171997 705.290405,733.605896 658.523438,729.801819 
	C613.466431,726.136841 580.222900,702.318726 558.429199,662.000549 
	C560.756042,651.801697 560.366150,641.682312 556.841370,631.242554 
	C559.674866,631.629028 561.777832,631.890869 563.872864,632.205566 
	C576.642822,634.123718 588.158630,631.344543 598.773010,623.811401 
	C625.953125,604.521423 623.187866,562.770142 593.668274,547.304138 
	C581.522766,540.940796 568.971558,540.432983 556.277832,542.940735 
M987.626282,787.030273 
	C980.665527,805.361938 974.533630,824.062988 966.563843,841.944885 
	C951.966736,874.696350 933.409973,905.197510 910.693298,933.052979 
	C908.714661,935.479126 908.865295,937.116028 911.356018,939.225159 
	C937.509521,961.370789 965.635132,980.469238 997.489807,993.412537 
	C1042.320435,1011.628296 1088.843384,1019.309570 1137.235352,1014.422607 
	C1167.360107,1011.380432 1196.018555,1003.515869 1222.558594,988.774475 
	C1248.682861,974.264038 1269.896240,954.451050 1284.278076,928.100708 
	C1297.783447,903.356079 1302.948608,876.679077 1300.177124,848.545898 
	C1297.832031,824.742493 1289.206665,803.421875 1274.418579,784.694885 
	C1257.179688,762.864319 1235.230835,746.537292 1210.210327,735.227051 
	C1182.401855,722.656555 1153.792114,711.772095 1125.187256,701.073425 
	C1094.980469,689.775574 1064.343994,679.630005 1033.948242,668.831726 
	C1025.546387,665.846802 1017.333557,662.329712 1008.348694,658.786621 
	C1007.200012,702.770142 1000.584412,745.025940 987.626282,787.030273 
M414.486847,305.891510 
	C503.250519,286.367523 591.976746,284.269623 680.859314,306.663513 
	C680.638123,305.821594 680.219482,305.565063 679.770081,305.385071 
	C659.261536,297.167633 639.100281,287.898376 618.163574,280.974457 
	C579.311890,268.126007 539.105774,262.862915 498.171112,262.937866 
	C436.343964,263.051056 374.516449,262.983917 312.689087,262.959778 
	C285.527374,262.949188 258.365631,262.851654 231.203918,262.802185 
	C222.776749,262.786835 214.349503,262.799805 206.280457,262.799805 
	C206.280457,308.056488 206.280457,352.586639 206.280457,397.750244 
	C207.964828,396.821686 208.968445,396.327454 209.913239,395.738861 
	C227.689453,384.663574 244.910660,372.552948 263.336395,362.692902 
	C310.898956,337.241089 360.880646,317.805908 414.486847,305.891510 
M682.391907,307.556976 
	C682.391907,307.556976 682.527405,307.349457 682.527405,307.349457 
	C682.527405,307.349457 682.224365,307.373657 682.391907,307.556976 
z" data-index="1" style="visibility: visible; opacity: 1;"></path>

<path fill="#F3F1EC" opacity="1.000000" stroke="none" d="
M548.790405,450.366425 
	C549.011536,450.322662 549.137634,450.378021 549.263794,450.433411 
	C549.074341,450.444153 548.884949,450.454865 548.790405,450.366425 
z" data-index="3"></path>
<path fill="#FCFDFB" opacity="1.000000" stroke="none" d="
M389.831177,619.048340 
	C390.002899,642.084290 391.815125,664.922363 397.457458,687.363159 
	C403.833893,712.723694 413.847961,736.539368 427.498322,758.807068 
	C449.055603,793.973328 477.091034,822.958435 511.591980,845.539490 
	C558.201721,876.045654 609.582581,888.895081 665.092834,887.324585 
	C727.179443,885.567932 780.595459,862.785950 827.259460,822.667236 
	C843.395142,808.794861 856.908813,792.632690 869.176758,775.348877 
	C869.794922,774.477905 870.564209,773.714111 871.263184,772.900391 
	C871.661682,773.100098 872.060242,773.299805 872.458801,773.499512 
	C870.138733,779.534424 868.070740,785.680908 865.456421,791.585571 
	C851.507812,823.090271 833.474731,852.072693 811.313965,878.470154 
	C794.017700,899.073181 774.947571,917.889648 753.803223,934.512329 
	C728.278992,954.578125 700.398682,970.654114 670.520630,983.427246 
	C616.987183,1006.313416 561.021729,1014.916260 503.221527,1011.624451 
	C464.950409,1009.444824 427.664001,1001.368469 392.088318,986.990112 
	C368.408173,977.419434 345.146484,966.703064 322.204590,955.464233 
	C311.293060,950.118896 301.564941,942.357788 290.987305,935.133301 
	C281.313019,923.771729 271.654938,913.209229 262.647522,902.118347 
	C236.492294,869.913330 216.896210,833.962463 202.975937,794.945679 
	C198.523315,782.465515 194.979874,769.661011 191.005371,756.605713 
	C191.011856,755.143555 191.033417,754.080627 191.376312,752.900146 
	C194.229340,750.927795 196.956879,749.286438 199.255371,747.177429 
	C205.742905,741.224915 211.735931,734.696533 218.499023,729.088745 
	C234.336441,715.956848 249.742386,702.100647 266.707123,690.574890 
	C301.804535,666.729797 338.526306,645.569885 378.765778,631.291077 
	C384.065704,629.410339 387.966980,626.806702 388.202850,620.614868 
	C388.223511,620.072815 389.264252,619.569641 389.831177,619.048340 
z" data-index="4" style="opacity: 1;"></path>

<path fill="#74B4B2" opacity="1.000000" stroke="none" d="
M558.240417,662.849731 
	C580.222900,702.318726 613.466431,726.136841 658.523438,729.801819 
	C705.290405,733.605896 743.073486,715.171997 769.858826,676.248169 
	C775.635681,667.853394 779.122559,657.882629 784.222656,648.288696 
	C786.013184,648.299255 787.435059,648.377197 788.448914,649.060486 
	C805.996460,660.887695 823.503113,672.775696 840.995667,684.684143 
	C845.457275,687.721436 849.839722,690.874939 854.258545,693.975098 
	C835.831421,747.682068 801.811096,788.213257 751.325195,814.346069 
	C698.959412,841.451965 644.412781,844.832764 588.602173,826.767944 
	C559.431763,817.325928 533.817139,801.461487 511.047577,780.849670 
	C483.266266,755.701172 463.743073,725.182922 451.612793,689.959412 
	C444.967743,670.663757 442.281982,650.513977 441.621948,630.125366 
	C441.439117,624.476379 441.417358,618.822144 441.833191,612.696167 
	C451.764038,610.257935 461.134125,608.003784 470.613464,606.391968 
	C488.592377,603.335022 506.633881,600.646179 524.885498,598.109863 
	C526.260071,601.262878 527.398560,604.110535 528.954651,608.002686 
	C525.676025,608.002686 523.580933,608.032349 521.486877,607.997864 
	C508.525970,607.784546 497.822632,612.431091 489.627502,622.630432 
	C480.629486,633.829041 477.541565,646.442261 482.253601,660.035217 
	C487.312836,674.629761 497.439209,684.765076 512.906494,687.913818 
	C532.500427,691.902527 549.481934,682.169495 558.240417,662.849731 
z" data-index="6" style="opacity: 1;"></path>

<path fill="#C1C8CF" opacity="1.000000" stroke="none" d="
M389.970886,618.597107 
	C389.264252,619.569641 388.223511,620.072815 388.202850,620.614868 
	C387.966980,626.806702 384.065704,629.410339 378.765778,631.291077 
	C338.526306,645.569885 301.804535,666.729797 266.707123,690.574890 
	C249.742386,702.100647 234.336441,715.956848 218.499023,729.088745 
	C211.735931,734.696533 205.742905,741.224915 199.255371,747.177429 
	C196.956879,749.286438 194.229340,750.927795 191.111633,752.635010 
	C187.995865,739.467834 184.738556,726.538635 183.109070,713.407471 
	C180.739166,694.309753 179.542465,675.066406 177.845520,655.885193 
	C187.423996,648.203796 196.499268,639.765930 206.681641,632.992249 
	C230.751862,616.980042 254.868240,600.930298 279.864716,586.446899 
	C305.900696,571.361145 333.444672,559.074646 361.773224,548.748474 
	C375.796783,543.636597 389.923157,538.806824 404.936920,533.520569 
	C394.419830,561.394409 390.771362,589.519958 389.970886,618.597107 
z" data-index="8" style="opacity: 1;"></path>
<path fill="#FBFDFB" opacity="1.000000" stroke="none" d="
M558.334839,662.425171 
	C549.481934,682.169495 532.500427,691.902527 512.906494,687.913818 
	C497.439209,684.765076 487.312836,674.629761 482.253601,660.035217 
	C477.541565,646.442261 480.629486,633.829041 489.627502,622.630432 
	C497.822632,612.431091 508.525970,607.784546 521.486877,607.997864 
	C523.580933,608.032349 525.676025,608.002686 528.954651,608.002686 
	C527.398560,604.110535 526.260071,601.262878 524.942749,597.700562 
	C522.953857,584.009888 524.701782,571.828796 532.685913,560.996216 
	C538.698425,552.838806 547.270447,548.148926 555.977112,543.622375 
	C568.971558,540.432983 581.522766,540.940796 593.668274,547.304138 
	C623.187866,562.770142 625.953125,604.521423 598.773010,623.811401 
	C588.158630,631.344543 576.642822,634.123718 563.872864,632.205566 
	C561.777832,631.890869 559.674866,631.629028 556.841370,631.242554 
	C560.366150,641.682312 560.756042,651.801697 558.334839,662.425171 
z" data-index="9" style="opacity: 1;"></path>
<path fill="#3F7079" opacity="1.000000" stroke="none" d="
M556.127441,543.281555 
	C547.270447,548.148926 538.698425,552.838806 532.685913,560.996216 
	C524.701782,571.828796 522.953857,584.009888 524.706665,597.395142 
	C506.633881,600.646179 488.592377,603.335022 470.613464,606.391968 
	C461.134125,608.003784 451.764038,610.257935 441.970337,612.272583 
	C442.301880,581.782715 449.524323,552.881226 463.143677,525.525696 
	C465.482605,520.827759 468.529022,518.355957 473.913513,517.361816 
	C508.295044,511.014008 542.810364,506.294861 577.879639,506.937408 
	C579.787231,506.972382 581.692871,507.115021 584.359619,507.244446 
	C574.611816,519.635376 565.444824,531.288086 556.127441,543.281555 
z" data-index="10" style="opacity: 1;"></path>
<path fill="#804C6B" opacity="1.000000" stroke="none" d="
M177.537079,656.013550 
	C179.542465,675.066406 180.739166,694.309753 183.109070,713.407471 
	C184.738556,726.538635 187.995865,739.467834 190.790283,752.752502 
	C191.033417,754.080627 191.011856,755.143555 190.836411,756.891968 
	C180.237350,769.109924 169.515762,780.407654 159.452759,792.264404 
	C153.604324,799.155396 148.812836,806.943420 143.545776,814.327820 
	C124.711578,793.843689 107.856300,771.809387 92.119987,748.886902 
	C90.486755,746.507874 90.685181,744.749756 92.454292,742.684265 
	C99.048813,734.984985 105.317383,726.990967 112.167206,719.528870 
	C132.669205,697.194458 154.019821,675.708557 177.537079,656.013550 
z" data-index="11" style="opacity: 1;"></path>
<path fill="#3F6F78" opacity="1.000000" stroke="none" d="
M854.513611,693.744873 
	C849.839722,690.874939 845.457275,687.721436 840.995667,684.684143 
	C823.503113,672.775696 805.996460,660.887695 788.448914,649.060486 
	C787.435059,648.377197 786.013184,648.299255 784.396729,647.972168 
	C795.740479,613.953125 792.390198,580.602478 778.342285,546.519165 
	C782.093140,547.864136 784.671143,548.618958 787.110474,549.689514 
	C810.434265,559.925781 833.469666,570.755676 854.699402,584.959656 
	C857.447083,586.797974 860.225037,590.130554 860.926941,593.236938 
	C865.435303,613.188843 866.309387,633.495789 863.400269,653.685974 
	C861.467712,667.098328 857.709595,680.247559 854.513611,693.744873 
z" data-index="12"></path>
<path fill="#B87190" opacity="1.000000" stroke="none" d="
M143.688110,814.635864 
	C148.812836,806.943420 153.604324,799.155396 159.452759,792.264404 
	C169.515762,780.407654 180.237350,769.109924 190.851501,757.291199 
	C194.979874,769.661011 198.523315,782.465515 202.975937,794.945679 
	C216.896210,833.962463 236.492294,869.913330 262.647522,902.118347 
	C271.654938,913.209229 281.313019,923.771729 290.740540,934.911499 
	C281.112946,929.567261 270.868988,924.640747 261.836395,918.053284 
	C241.727966,903.388306 221.355713,888.880676 202.709061,872.470398 
	C182.139023,854.367371 163.378906,834.207703 143.688110,814.635864 
z" data-index="13"></path>
<path fill="#DDD3CA" opacity="1.000000" stroke="none" d="
M682.308105,307.465332 
	C682.224365,307.373657 682.527405,307.349457 682.527405,307.349457 
	C682.527405,307.349457 682.391907,307.556976 682.308105,307.465332 
z" data-index="14"></path>
</svg>